# xmcd
# 
# Track frame offsets:
#     187
#     6745
#     34110
#     48262
#     69660
#     92975
#     116985
#     139015
#     157240
# 
# Disc length: 2374
# 
# Revision: 3
# Processed by: cddbd v1.5.2PL0 Copyright (c) Steve Scherf et al.
# Submitted via: BonkEnc v1.0.5
# 
DISCID=85094409
DTITLE=B. B. King - Indianola Mississippi Seeds
DYEAR=1970
DGENRE=Blues
TTITLE0=Nobody Loves Me But My Mother
TTITLE1=You're Still My Woman
TTITLE2=Ask Me No Questions
TTITLE3=Until' I'm Dead and Cold
TTITLE4=King's Special
TTITLE5=Ain't Gonna Worry My Life Anymore
TTITLE6=Chains and Things
TTITLE7=Go Underground
TTITLE8=Hummingbird
EXTD=
EXTT0=
EXTT1=
EXTT2=
EXTT3=
EXTT4=
EXTT5=
EXTT6=
EXTT7=
EXTT8=
PLAYORDER=
